<svg width="20" height="20" viewBox="0 0 20 20" fill="none" xmlns="http://www.w3.org/2000/svg">
<path d="M4.97768 13.9025H15.016C15.6627 13.9025 16.0582 13.5509 16.0582 13.0236C16.0582 12.3581 15.4555 11.7868 14.8905 11.2469C14.4448 10.8138 14.3443 9.90974 14.2627 9.07478C14.1622 6.77706 13.4905 5.15737 11.8645 4.57352C11.6071 3.74484 10.9229 3.10449 9.99372 3.10449C9.07087 3.10449 8.38658 3.74484 8.12291 4.57352C6.50321 5.15737 5.8252 6.77706 5.73103 9.07478C5.64941 9.90974 5.54269 10.8138 5.10324 11.2469C4.53823 11.7868 3.93555 12.3581 3.93555 13.0236C3.93555 13.5509 4.33105 13.9025 4.97768 13.9025ZM9.99372 16.489C11.1112 16.489 11.921 15.6917 12.0027 14.7814H7.99107C8.07268 15.6917 8.88253 16.489 9.99372 16.489Z" fill="#14151A"/>
</svg>
