<svg width="20" height="20" viewBox="0 0 20 20" fill="none" xmlns="http://www.w3.org/2000/svg">
<path d="M10 2C8.41775 2 6.87103 2.46919 5.55544 3.34824C4.23985 4.22729 3.21447 5.47672 2.60897 6.93853C2.00347 8.40034 1.84504 10.0089 2.15372 11.5607C2.4624 13.1126 3.22433 14.538 4.34315 15.6569C5.46197 16.7757 6.88743 17.5376 8.43928 17.8463C9.99113 18.155 11.5997 17.9965 13.0615 17.391C14.5233 16.7855 15.7727 15.7602 16.6518 14.4446C17.5308 13.129 18 11.5822 18 10C17.9977 7.87896 17.1542 5.84544 15.6544 4.34564C14.1546 2.84584 12.121 2.00226 10 2ZM10 4C11.2442 4.00189 12.4565 4.39366 13.4666 5.12023L5.1195 13.4656C4.47795 12.5703 4.09603 11.5154 4.01584 10.4169C3.93565 9.31845 4.16031 8.21918 4.66504 7.24026C5.16977 6.26135 5.93499 5.44079 6.87634 4.86905C7.81769 4.29731 8.89863 3.99657 10 4ZM10 16C8.7558 15.9981 7.54347 15.6063 6.53345 14.8798L14.8805 6.53442C15.5221 7.42965 15.904 8.48464 15.9842 9.58309C16.0644 10.6815 15.8397 11.7808 15.335 12.7597C14.8302 13.7387 14.065 14.5592 13.1237 15.1309C12.1823 15.7027 11.1014 16.0034 10 16Z" fill="black"/>
</svg>
