<svg width="28" height="28" viewBox="0 0 28 28" fill="none" xmlns="http://www.w3.org/2000/svg">
<path d="M0 14C0 6.26801 6.26801 0 14 0C21.732 0 28 6.26801 28 14C28 21.732 21.732 28 14 28C6.26801 28 0 21.732 0 14Z" fill="white"/>
<path d="M17.7919 15.6558L17.7868 10.6134C17.7868 10.2618 17.5558 10.0208 17.1942 10.0208H12.1468C11.8052 10.0208 11.5692 10.2769 11.5692 10.5782C11.5692 10.8745 11.8253 11.1206 12.1317 11.1206H13.9347L16.0642 11.0503L15.1501 11.8539L10.3839 16.6251C10.2684 16.7456 10.2031 16.8863 10.2031 17.0269C10.2031 17.3232 10.4743 17.6045 10.7807 17.6045C10.9213 17.6045 11.0619 17.5442 11.1825 17.4287L15.9537 12.6575L16.7673 11.7434L16.6819 13.7825V15.6709C16.6819 15.9822 16.928 16.2434 17.2344 16.2434C17.5357 16.2434 17.7919 15.9873 17.7919 15.6558Z" fill="#14151A"/>
</svg>
