<svg width="41" height="41" viewBox="0 0 41 41" fill="none" xmlns="http://www.w3.org/2000/svg">
<path d="M0.5 20.5C0.5 9.45431 9.45431 0.5 20.5 0.5C31.5457 0.5 40.5 9.45431 40.5 20.5C40.5 31.5457 31.5457 40.5 20.5 40.5C9.45431 40.5 0.5 31.5457 0.5 20.5Z" fill="#E9EAEC"/>
<path d="M20.5001 23.7061C20.7199 23.6998 20.9208 23.6182 21.084 23.4424L25.8552 18.5582C25.9933 18.4201 26.0686 18.2443 26.0686 18.0371C26.0686 17.6228 25.7422 17.29 25.3278 17.29C25.127 17.29 24.9323 17.3717 24.7879 17.516L20.5064 21.9169L16.2123 17.516C16.0679 17.3779 15.8796 17.29 15.6724 17.29C15.2581 17.29 14.9316 17.6228 14.9316 18.0371C14.9316 18.2443 15.007 18.4201 15.1451 18.5582L19.9226 23.4424C20.0921 23.6182 20.2804 23.7061 20.5001 23.7061Z" fill="#14151A"/>
</svg>
