<svg width="40" height="40" viewBox="0 0 40 40" fill="none" xmlns="http://www.w3.org/2000/svg">
<path d="M0 20C0 8.95431 8.95431 0 20 0C31.0457 0 40 8.95431 40 20C40 31.0457 31.0457 40 20 40C8.95431 40 0 31.0457 0 20Z" fill="#E9EAEC"/>
<path d="M15.1353 23.6074C14.8716 23.871 14.8591 24.3419 15.1416 24.6181C15.4178 24.8943 15.8886 24.8881 16.1523 24.6244L19.9944 20.776L23.8427 24.6244C24.1127 24.8943 24.5772 24.8943 24.8535 24.6181C25.1234 24.3356 25.1297 23.8773 24.8535 23.6074L21.0114 19.759L24.8535 15.9169C25.1297 15.647 25.1297 15.1824 24.8535 14.9062C24.571 14.6363 24.1127 14.63 23.8427 14.8999L19.9944 18.7483L16.1523 14.8999C15.8886 14.6363 15.4115 14.6237 15.1416 14.9062C14.8653 15.1824 14.8716 15.6533 15.1353 15.9169L18.9836 19.759L15.1353 23.6074Z" fill="#14151A"/>
</svg>
