<svg width="20" height="20" viewBox="0 0 20 20" fill="none" xmlns="http://www.w3.org/2000/svg">
<path fill-rule="evenodd" clip-rule="evenodd" d="M13.1334 6.32316C13.3691 5.9826 13.8364 5.89765 14.1769 6.13342C14.5175 6.3692 14.6024 6.83641 14.3667 7.17698L9.87647 13.6628C9.85492 13.6955 9.8306 13.7268 9.80353 13.7563C9.7437 13.8219 9.67408 13.8748 9.59849 13.9144C9.49916 13.9666 9.3913 13.9947 9.28302 13.9994C9.17503 14.0042 9.06541 13.9858 8.9621 13.9428C8.88329 13.9101 8.80924 13.8636 8.7438 13.8036C8.71421 13.7766 8.6872 13.7476 8.66282 13.717L6.17385 10.7302C5.90868 10.412 5.95167 9.93907 6.26988 9.6739C6.58809 9.40873 7.06101 9.45172 7.32618 9.76993L9.19478 12.0122L13.1334 6.32316Z" fill="#14151A"/>
</svg>
