<svg width="50" height="50" viewBox="0 0 50 50" fill="none" xmlns="http://www.w3.org/2000/svg">
<path d="M17.0115 41.9764C17.655 41.9764 18.1572 41.6625 18.9263 40.9406L24.7019 35.7299H34.9977C39.7218 35.7456 42.3742 33.0304 42.3742 28.3691V16.1899C42.3742 11.5286 39.7218 8.8291 34.9977 8.8291H14.9869C10.2628 8.8291 7.61035 11.5286 7.61035 16.1899V28.3691C7.61035 33.0304 10.3255 35.7299 14.877 35.7299H15.5048V40.2814C15.5048 41.3016 16.0698 41.9764 17.0115 41.9764ZM23.258 30.017C22.6616 30.017 22.1751 29.7659 21.7356 29.1852L17.8904 24.5082C17.6079 24.1629 17.4667 23.7862 17.4667 23.3938C17.4667 22.5934 18.0944 21.9342 18.9106 21.9342C19.3971 21.9342 19.7738 22.1226 20.1662 22.6248L23.1952 26.47L29.6929 16.0801C30.0225 15.5465 30.4776 15.264 30.9641 15.264C31.7489 15.264 32.4551 15.8133 32.4551 16.6294C32.4551 16.9904 32.2825 17.3827 32.0471 17.7437L24.7019 29.1852C24.3567 29.7345 23.8387 30.017 23.258 30.017Z" fill="#FF185F"/>
</svg>
