<svg width="21" height="20" viewBox="0 0 21 20" fill="none" xmlns="http://www.w3.org/2000/svg">
<path d="M14.5367 9.75307C14.5304 9.53334 14.4488 9.34501 14.2793 9.1755L9.39509 4.39802C9.2507 4.25991 9.08119 4.18457 8.87402 4.18457C8.4534 4.18457 8.12695 4.51102 8.12695 4.93164C8.12695 5.13253 8.20857 5.32087 8.35296 5.46526L12.7475 9.75307L8.35296 14.0409C8.20857 14.1853 8.12695 14.3673 8.12695 14.5745C8.12695 14.9951 8.4534 15.3216 8.87402 15.3216C9.07492 15.3216 9.2507 15.2462 9.39509 15.1081L14.2793 10.3244C14.4551 10.1611 14.5367 9.9728 14.5367 9.75307Z" fill="#0D1126" fill-opacity="0.4"/>
</svg>
