<svg width="16" height="16" viewBox="0 0 16 16" fill="none" xmlns="http://www.w3.org/2000/svg">
<path d="M8.00021 10.5647C8.17599 10.5597 8.3367 10.4944 8.46728 10.3538L12.2842 6.44639C12.3947 6.3359 12.455 6.19528 12.455 6.02954C12.455 5.69807 12.1938 5.43188 11.8624 5.43188C11.7017 5.43188 11.546 5.49717 11.4305 5.61269L8.00523 9.13334L4.56996 5.61269C4.45445 5.5022 4.30378 5.43188 4.13804 5.43188C3.80657 5.43188 3.54541 5.69807 3.54541 6.02954C3.54541 6.19528 3.60568 6.3359 3.71617 6.44639L7.53816 10.3538C7.67376 10.4944 7.82443 10.5647 8.00021 10.5647Z" fill="#0D1126" fill-opacity="0.4"/>
</svg>
