<svg width="20" height="20" viewBox="0 0 20 20" fill="none" xmlns="http://www.w3.org/2000/svg">
<path d="M7.02999 16.0561H12.9752C13.8352 16.0561 14.3375 15.5978 14.3751 14.744L14.7706 5.67247H15.637C15.9572 5.67247 16.202 5.42135 16.202 5.10746C16.202 4.79356 15.9509 4.555 15.637 4.555H12.9124V3.61332C12.9124 2.60885 12.2658 2.01245 11.186 2.01245H8.80036C7.72056 2.01245 7.07394 2.60885 7.07394 3.61332V4.555H4.36189C4.04799 4.555 3.79688 4.79984 3.79688 5.10746C3.79688 5.42763 4.04799 5.67247 4.36189 5.67247H5.23451L5.6363 14.744C5.66769 15.5978 6.16992 16.0561 7.02999 16.0561ZM8.37974 3.66982C8.37974 3.38731 8.57436 3.20525 8.88825 3.20525H11.1044C11.4182 3.20525 11.6129 3.38731 11.6129 3.66982V4.555H8.37974V3.66982ZM7.98424 14.1288C7.73312 14.1288 7.55734 13.9656 7.55106 13.7145L7.36272 7.04733C7.35645 6.79621 7.53223 6.62671 7.7959 6.62671C8.04701 6.62671 8.2228 6.78993 8.22907 7.04105L8.41741 13.7082C8.42997 13.9593 8.25419 14.1288 7.98424 14.1288ZM9.99944 14.1288C9.73577 14.1288 9.55999 13.9656 9.55999 13.7145V7.04105C9.55999 6.79621 9.73577 6.62671 9.99944 6.62671C10.2631 6.62671 10.4452 6.79621 10.4452 7.04105V13.7145C10.4452 13.9656 10.2631 14.1288 9.99944 14.1288ZM12.0146 14.1351C11.7447 14.1351 11.5689 13.9593 11.5815 13.7145L11.7698 7.04105C11.7761 6.78993 11.9519 6.62671 12.203 6.62671C12.4667 6.62671 12.6424 6.79621 12.6362 7.04733L12.4478 13.7145C12.4415 13.9656 12.2658 14.1351 12.0146 14.1351Z" fill="#0A0F29" fill-opacity="0.25"/>
</svg>
