<svg width="25" height="24" viewBox="0 0 25 24" fill="none" xmlns="http://www.w3.org/2000/svg">
<path d="M8.93638 19.2672H16.0706C17.1027 19.2672 17.7054 18.7173 17.7506 17.6927L18.2252 6.80682H19.2648C19.649 6.80682 19.9428 6.50548 19.9428 6.1288C19.9428 5.75213 19.6415 5.46586 19.2648 5.46586H15.9953V4.33583C15.9953 3.13048 15.2193 2.41479 13.9235 2.41479H11.0608C9.76507 2.41479 8.98912 3.13048 8.98912 4.33583V5.46586H5.73465C5.35798 5.46586 5.05664 5.75966 5.05664 6.1288C5.05664 6.51301 5.35798 6.80682 5.73465 6.80682H6.78181L7.26395 17.6927C7.30162 18.7173 7.9043 19.2672 8.93638 19.2672ZM10.5561 4.40363C10.5561 4.06463 10.7896 3.84616 11.1663 3.84616H13.8256C14.2023 3.84616 14.4358 4.06463 14.4358 4.40363V5.46586H10.5561V4.40363ZM10.0815 16.9544C9.78013 16.9544 9.5692 16.7585 9.56166 16.4572L9.33566 8.45665C9.32813 8.15531 9.53906 7.9519 9.85547 7.9519C10.1568 7.9519 10.3677 8.14777 10.3753 8.44911L10.6013 16.4497C10.6164 16.751 10.4054 16.9544 10.0815 16.9544ZM12.4997 16.9544C12.1833 16.9544 11.9724 16.7585 11.9724 16.4572V8.44911C11.9724 8.15531 12.1833 7.9519 12.4997 7.9519C12.8161 7.9519 13.0346 8.15531 13.0346 8.44911V16.4572C13.0346 16.7585 12.8161 16.9544 12.4997 16.9544ZM14.918 16.9619C14.594 16.9619 14.3831 16.751 14.3982 16.4572L14.6242 8.44911C14.6317 8.14777 14.8426 7.9519 15.144 7.9519C15.4604 7.9519 15.6713 8.15531 15.6638 8.45665L15.4378 16.4572C15.4302 16.7585 15.2193 16.9619 14.918 16.9619Z" fill="white" fill-opacity="0.9"/>
</svg>
