<svg width="16" height="16" viewBox="0 0 16 16" fill="none" xmlns="http://www.w3.org/2000/svg">
<path d="M7.99484 12.9955C10.8425 12.9955 13.1929 10.6451 13.1929 7.80246C13.1929 4.95982 10.8375 2.60938 7.98982 2.60938C5.14718 2.60938 2.80176 4.95982 2.80176 7.80246C2.80176 10.6451 5.1522 12.9955 7.99484 12.9955ZM5.46359 8.43527C5.23758 8.43527 5.0618 8.25949 5.0618 8.03348C5.0618 7.80748 5.23758 7.6317 5.46359 7.6317H7.59305V4.74888C7.59305 4.52288 7.76883 4.3471 7.98982 4.3471C8.22084 4.3471 8.39662 4.52288 8.39662 4.74888V8.03348C8.39662 8.25949 8.22084 8.43527 7.98982 8.43527H5.46359Z" fill="#0D1126" fill-opacity="0.4"/>
</svg>
