<svg width="21" height="20" viewBox="0 0 21 20" fill="none" xmlns="http://www.w3.org/2000/svg">
<path d="M6.43801 12.8106C6.17434 13.0743 6.16178 13.5451 6.44429 13.8151C6.71424 14.0976 7.19136 14.085 7.45503 13.8214L10.4998 10.7766L13.5446 13.8214C13.8145 14.0913 14.2791 14.0976 14.5491 13.8151C14.8316 13.5451 14.8253 13.0743 14.5553 12.8043L11.5106 9.75956L14.5553 6.72105C14.8253 6.44482 14.8316 5.98026 14.5491 5.71031C14.2791 5.4278 13.8145 5.43408 13.5446 5.70403L10.4998 8.74881L7.45503 5.70403C7.19136 5.44036 6.71424 5.4278 6.44429 5.71031C6.16178 5.98026 6.17434 6.4511 6.43801 6.71477L9.48279 9.75956L6.43801 12.8106Z" fill="white" fill-opacity="0.9"/>
</svg>
