<svg viewBox="0 0 8 8"  xmlns="http://www.w3.org/2000/svg">
<path d="M0.750215 6.24791C0.539277 6.45885 0.529233 6.83552 0.755237 7.05148C0.971197 7.27748 1.35289 7.26744 1.56383 7.0565L3.99966 4.62068L6.43548 7.0565C6.65144 7.27246 7.02309 7.27748 7.23905 7.05148C7.46506 6.83552 7.46004 6.45885 7.24408 6.24289L4.80825 3.80706L7.24408 1.37626C7.46004 1.15527 7.46506 0.783622 7.23905 0.567662C7.02309 0.341657 6.65144 0.34668 6.43548 0.56264L3.99966 2.99847L1.56383 0.56264C1.35289 0.351702 0.971197 0.341657 0.755237 0.567662C0.529233 0.783622 0.539277 1.1603 0.750215 1.37123L3.18604 3.80706L0.750215 6.24791Z" fill="#14151A"/>
</svg>
