<svg width="20" height="20" viewBox="0 0 20 20" fill="none" xmlns="http://www.w3.org/2000/svg">
<path d="M10.8354 15.5977C11.1807 15.5977 11.4506 15.4658 11.7833 15.1519L16.7554 10.4874C17.0003 10.2552 17.0944 9.98521 17.0944 9.75293C17.0944 9.51437 17.0003 9.2507 16.7554 9.01842L11.7833 4.38532C11.4192 4.04632 11.1807 3.9082 10.8479 3.9082C10.3457 3.9082 9.98786 4.29743 9.98786 4.78711V7.02204H9.83091C5.49916 7.02204 3.49023 9.80315 3.49023 14.3609C3.49023 15.1582 3.82924 15.5725 4.26869 15.5725C4.60142 15.5725 4.90904 15.4658 5.15388 15.0075C6.13951 13.1744 7.53948 12.5027 9.83091 12.5027H9.98786V14.7501C9.98786 15.2398 10.3457 15.5977 10.8354 15.5977Z" fill="#FF185F"/>
</svg>
