<svg width="17" height="16" viewBox="0 0 17 16" fill="none" xmlns="http://www.w3.org/2000/svg">
<path d="M8.49484 12.9955C11.3425 12.9955 13.6929 10.6451 13.6929 7.80246C13.6929 4.95982 11.3375 2.60938 8.48982 2.60938C5.64718 2.60938 3.30176 4.95982 3.30176 7.80246C3.30176 10.6451 5.6522 12.9955 8.49484 12.9955ZM8.49484 8.66127C8.19852 8.66127 8.02776 8.49554 8.01772 8.1942L7.9474 5.68806C7.93736 5.37667 8.15834 5.16071 8.48982 5.16071C8.81124 5.16071 9.04729 5.3817 9.03725 5.69308L8.95689 8.1942C8.94685 8.50056 8.78111 8.66127 8.49484 8.66127ZM8.49484 10.399C8.15332 10.399 7.87207 10.1529 7.87207 9.82143C7.87207 9.48996 8.1483 9.24386 8.49484 9.24386C8.83636 9.24386 9.11258 9.48996 9.11258 9.82143C9.11258 10.1579 8.83133 10.399 8.49484 10.399Z" fill="#FF185F"/>
</svg>
