<svg width="65" height="65" viewBox="0 0 65 65" fill="none" xmlns="http://www.w3.org/2000/svg">
<g clip-path="url(#clip0_4238_25181)">
<path d="M32.4681 64.4099C50.088 64.4099 64.6314 49.8665 64.6314 32.2777C64.6314 14.6889 50.0569 0.145508 32.437 0.145508C14.8482 0.145508 0.335938 14.6889 0.335938 32.2777C0.335938 49.8665 14.8793 64.4099 32.4681 64.4099ZM32.4681 37.5916C30.6347 37.5916 29.5781 36.5661 29.5159 34.7016L29.0809 19.1949C29.0187 17.2682 30.3861 15.9319 32.437 15.9319C34.4259 15.9319 35.8864 17.2992 35.8243 19.2259L35.3271 34.7016C35.2649 36.5972 34.2394 37.5916 32.4681 37.5916ZM32.4681 48.3438C30.355 48.3438 28.6147 46.8211 28.6147 44.7701C28.6147 42.7191 30.3239 41.1964 32.4681 41.1964C34.5813 41.1964 36.2904 42.7191 36.2904 44.7701C36.2904 46.8522 34.5502 48.3438 32.4681 48.3438Z" fill="#0A0F29" fill-opacity="0.25"/>
</g>
<defs>
<clipPath id="clip0_4238_25181">
<rect width="65" height="65" fill="white"/>
</clipPath>
</defs>
</svg>
