<svg width="20" height="20" viewBox="0 0 20 20" fill="none" xmlns="http://www.w3.org/2000/svg">
<g clip-path="url(#clip0_6187_30927)">
<path d="M9.16699 14.166H10.8337V9.16602H9.16699V14.166ZM10.0003 1.66602C5.39616 1.66602 1.66699 5.39518 1.66699 9.99935C1.66699 14.6035 5.39616 18.3327 10.0003 18.3327C14.6045 18.3327 18.3337 14.6035 18.3337 9.99935C18.3337 5.39518 14.6045 1.66602 10.0003 1.66602ZM10.0003 16.666C6.32533 16.666 3.33366 13.6743 3.33366 9.99935C3.33366 6.32435 6.32533 3.33268 10.0003 3.33268C13.6753 3.33268 16.667 6.32435 16.667 9.99935C16.667 13.6743 13.6753 16.666 10.0003 16.666ZM9.16699 7.49935H10.8337V5.83268H9.16699V7.49935Z" fill="black"/>
</g>
<defs>
<clipPath id="clip0_6187_30927">
<rect width="20" height="20" fill="white"/>
</clipPath>
</defs>
</svg>
