<svg width="20" height="20" viewBox="0 0 20 20" fill="none" xmlns="http://www.w3.org/2000/svg">
<path d="M5.69383 8.49673L3.97165 10.4092L3.2804 9.71829C2.98744 9.42532 2.51291 9.42532 2.21978 9.71829C1.92666 10.0113 1.92682 10.4858 2.21978 10.7789L3.46978 12.0289C3.6104 12.1717 3.80196 12.2498 3.97196 12.2498C3.97879 12.2498 3.98466 12.2498 3.9915 12.2493C4.19756 12.244 4.39181 12.1546 4.52962 12.0018L6.77961 9.5018C7.05695 9.19371 7.03155 8.71962 6.72395 8.44212C6.44382 8.16549 5.97195 8.19049 5.69383 8.49673ZM5.69383 3.49801L3.97165 5.40925L3.2804 4.71832C2.98744 4.42535 2.51291 4.42535 2.21978 4.71832C1.92666 5.01129 1.92682 5.48581 2.21978 5.77894L3.46978 7.02893C3.6104 7.17174 3.80196 7.24987 3.97196 7.24987C3.97879 7.24987 3.98466 7.24987 3.9915 7.24938C4.19756 7.24401 4.39181 7.15466 4.52962 7.00182L6.77961 4.50183C7.05695 4.19374 7.03155 3.71965 6.72395 3.44215C6.44382 3.16583 5.97195 3.1902 5.69383 3.49801ZM3.50009 13.7217C2.67166 13.7217 2.0001 14.3933 2.0001 15.2217C2.0001 16.0501 2.67166 16.7217 3.50009 16.7217C4.32852 16.7217 5.00008 16.0501 5.00008 15.2217C5.00008 14.4217 4.32852 13.7217 3.50009 13.7217ZM10 6.24987H17C17.5522 6.24987 18 5.80206 18 5.24988C18 4.69769 17.5522 4.24988 17 4.24988H10C9.44693 4.24988 9.00006 4.69769 9.00006 5.24988C9.00006 5.80206 9.44693 6.24987 10 6.24987ZM17 9.24985H10C9.44693 9.24985 9.00006 9.69673 9.00006 10.2498C9.00006 10.803 9.44786 11.2498 10 11.2498H17C17.5522 11.2498 18 10.802 18 10.2498C18 9.69766 17.5531 9.24985 17 9.24985ZM17 14.2498H8.00006C7.44788 14.2498 7.00007 14.6976 7.00007 15.2498C7.00007 15.802 7.44788 16.2498 8.00006 16.2498H17C17.5522 16.2498 18 15.802 18 15.2498C18 14.6976 17.5531 14.2498 17 14.2498Z" fill="black"/>
</svg>
