<svg width="16" height="16" viewBox="0 0 16 16" fill="none" xmlns="http://www.w3.org/2000/svg">
<path d="M7.99944 12.9955C10.8471 12.9955 13.1925 10.6451 13.1925 7.80246C13.1925 4.95982 10.8371 2.60938 7.99442 2.60938C5.35268 2.60938 3.14286 4.63337 2.84654 7.19978C3.15792 7.12946 3.56975 7.10937 3.90123 7.16462C4.19754 5.16574 5.90513 3.649 7.99442 3.649C10.2997 3.649 12.1579 5.49721 12.1579 7.80246C12.1579 8.90234 11.736 9.89676 11.0379 10.635C10.5206 10.0625 9.42578 9.54018 7.99442 9.54018C7.54743 9.54018 7.13058 9.5904 6.75391 9.6808C6.81417 9.92187 6.84431 10.173 6.84431 10.4291C6.84431 11.2478 6.5279 12.0061 6.01562 12.5937C6.62835 12.8499 7.30134 12.9955 7.99944 12.9955ZM7.99442 8.71652C8.96875 8.72154 9.72712 7.89286 9.72712 6.81808C9.72712 5.80357 8.96373 4.9548 7.99442 4.9548C7.03013 4.9548 6.2567 5.80357 6.26674 6.81808C6.27176 7.89286 7.02009 8.70647 7.99442 8.71652ZM3.53962 13.0206C4.94587 13.0206 6.12612 11.8454 6.12612 10.4291C6.12612 9.01283 4.96094 7.84263 3.53962 7.84263C2.12333 7.84263 0.953125 9.01283 0.953125 10.4291C0.953125 11.8504 2.12333 13.0206 3.53962 13.0206ZM1.89732 10.4291C1.89732 10.2232 2.03795 10.0876 2.24386 10.0876H3.19308V9.13839C3.19308 8.93248 3.32868 8.79185 3.53962 8.79185C3.75056 8.79185 3.88616 8.93248 3.88616 9.13839V10.0876H4.83538C5.04129 10.0876 5.18192 10.2232 5.18192 10.4291C5.18192 10.6401 5.04129 10.7757 4.83538 10.7757H3.88616V11.7299C3.88616 11.9358 3.75056 12.0765 3.53962 12.0765C3.32868 12.0765 3.19308 11.9358 3.19308 11.7299V10.7757H2.24386C2.03795 10.7757 1.90234 10.6401 1.89732 10.4291Z" fill="#0D1126" fill-opacity="0.4"/>
</svg>
