<svg width="89" height="28" viewBox="0 0 89 28" fill="none" xmlns="http://www.w3.org/2000/svg">
<path d="M5.62636 24C4.57119 24 3.6172 23.8079 2.7644 23.4237C1.91159 23.0324 1.23585 22.4668 0.737172 21.7269C0.245724 20.987 0 20.0799 0 19.0057C0 18.0808 0.180679 17.3195 0.542039 16.7219C0.903397 16.1243 1.39123 15.6512 2.00554 15.3026C2.61985 14.954 3.30643 14.6907 4.06529 14.5129C4.82414 14.335 5.59745 14.1998 6.38521 14.1073C7.38256 13.9935 8.19201 13.901 8.81355 13.8299C9.43508 13.7516 9.88678 13.6271 10.1686 13.4564C10.4505 13.2856 10.5914 13.0082 10.5914 12.624V12.5493C10.5914 11.6173 10.324 10.8952 9.78921 10.3829C9.26163 9.87068 8.47387 9.61456 7.42593 9.61456C6.33462 9.61456 5.47459 9.8529 4.84582 10.3296C4.22429 10.7991 3.79427 11.322 3.55577 11.8983L0.509516 11.2153C0.870875 10.2193 1.39846 9.41536 2.09227 8.80352C2.7933 8.18456 3.59914 7.73635 4.50976 7.45888C5.42038 7.1743 6.37799 7.03202 7.38256 7.03202C8.04746 7.03202 8.75211 7.11028 9.49651 7.26679C10.2481 7.4162 10.9492 7.69366 11.5996 8.09918C12.2573 8.50471 12.7957 9.08454 13.2149 9.83867C13.6341 10.5857 13.8437 11.5568 13.8437 12.752V23.6372H10.6782V21.3961H10.5481C10.3385 21.8087 10.0241 22.2143 9.60492 22.6127C9.18574 23.0111 8.64732 23.3419 7.98965 23.6051C7.33197 23.8684 6.54421 24 5.62636 24ZM6.33101 21.4388C7.22718 21.4388 7.99326 21.2645 8.62925 20.9159C9.27247 20.5673 9.76031 20.1119 10.0928 19.5499C10.4324 18.9808 10.6023 18.3725 10.6023 17.725V15.6121C10.4866 15.7259 10.2626 15.8326 9.93014 15.9322C9.60492 16.0247 9.23272 16.1065 8.81355 16.1777C8.39437 16.2417 7.98603 16.3022 7.58854 16.3591C7.19104 16.4089 6.85859 16.4516 6.59119 16.4871C5.96242 16.5654 5.38786 16.697 4.86751 16.882C4.35438 17.067 3.94243 17.3338 3.63166 17.6824C3.32812 18.0239 3.17635 18.4792 3.17635 19.0483C3.17635 19.838 3.47266 20.4357 4.06529 20.8412C4.65792 21.2396 5.41316 21.4388 6.33101 21.4388Z" fill="#14151A"/>
<path d="M31.8095 7.24545L25.7712 23.6372H22.3022L16.253 7.24545H19.7329L23.95 19.8594H24.1234L28.3296 7.24545H31.8095Z" fill="#14151A"/>
<path d="M34.8558 23.6372V7.24545H37.9888V9.84934H38.1622C38.4658 8.96715 39.0006 8.27349 39.7667 7.76836C40.54 7.25612 41.4144 7 42.3901 7C42.5925 7 42.831 7.00711 43.1056 7.02134C43.3875 7.03557 43.6079 7.05336 43.7669 7.0747V10.1268C43.6368 10.0912 43.4055 10.0521 43.0731 10.0094C42.7406 9.95962 42.4082 9.93471 42.0757 9.93471C41.3097 9.93471 40.6267 10.0948 40.0268 10.4149C39.4342 10.728 38.9644 11.1655 38.6175 11.7276C38.2706 12.2825 38.0972 12.9157 38.0972 13.6271V23.6372H34.8558Z" fill="#14151A"/>
<path d="M52.9897 23.968C51.4286 23.968 50.0663 23.6158 48.9027 22.9115C47.7391 22.2072 46.8357 21.2218 46.1925 19.9554C45.5493 18.6891 45.2277 17.2092 45.2277 15.516C45.2277 13.8157 45.5493 12.3287 46.1925 11.0552C46.8357 9.78175 47.7391 8.79284 48.9027 8.08851C50.0663 7.38418 51.4286 7.03202 52.9897 7.03202C54.5507 7.03202 55.9131 7.38418 57.0766 8.08851C58.2402 8.79284 59.1436 9.78175 59.7868 11.0552C60.4301 12.3287 60.7517 13.8157 60.7517 15.516C60.7517 17.2092 60.4301 18.6891 59.7868 19.9554C59.1436 21.2218 58.2402 22.2072 57.0766 22.9115C55.9131 23.6158 54.5507 23.968 52.9897 23.968ZM53.0005 21.2894C54.0123 21.2894 54.8507 21.0262 55.5156 20.4997C56.1805 19.9732 56.6719 19.2724 56.9899 18.3974C57.3151 17.5223 57.4778 16.5583 57.4778 15.5053C57.4778 14.4595 57.3151 13.4991 56.9899 12.624C56.6719 11.7418 56.1805 11.0339 55.5156 10.5003C54.8507 9.96673 54.0123 9.69994 53.0005 9.69994C51.9815 9.69994 51.1359 9.96673 50.4638 10.5003C49.7989 11.0339 49.3038 11.7418 48.9786 12.624C48.6606 13.4991 48.5016 14.4595 48.5016 15.5053C48.5016 16.5583 48.6606 17.5223 48.9786 18.3974C49.3038 19.2724 49.7989 19.9732 50.4638 20.4997C51.1359 21.0262 51.9815 21.2894 53.0005 21.2894Z" fill="#14151A"/>
<path d="M64.3698 23.6372V7.24545H67.5028V9.84934H67.6762C67.9798 8.96715 68.5146 8.27349 69.2806 7.76836C70.054 7.25612 70.9284 7 71.9041 7C72.1065 7 72.345 7.00711 72.6196 7.02134C72.9015 7.03557 73.1219 7.05336 73.2809 7.0747V10.1268C73.1508 10.0912 72.9195 10.0521 72.5871 10.0094C72.2546 9.95962 71.9222 9.93471 71.5897 9.93471C70.8236 9.93471 70.1407 10.0948 69.5408 10.4149C68.9482 10.728 68.4784 11.1655 68.1315 11.7276C67.7846 12.2825 67.6112 12.9157 67.6112 13.6271V23.6372H64.3698Z" fill="#14151A"/>
<path d="M80.7827 24C79.7275 24 78.7735 23.8079 77.9207 23.4237C77.0679 23.0324 76.3922 22.4668 75.8935 21.7269C75.4021 20.987 75.1563 20.0799 75.1563 19.0057C75.1563 18.0808 75.337 17.3195 75.6984 16.7219C76.0597 16.1243 76.5476 15.6512 77.1619 15.3026C77.7762 14.954 78.4628 14.6907 79.2216 14.5129C79.9805 14.335 80.7538 14.1998 81.5416 14.1073C82.5389 13.9935 83.3483 13.901 83.9699 13.8299C84.5914 13.7516 85.0431 13.6271 85.325 13.4564C85.6068 13.2856 85.7478 13.0082 85.7478 12.624V12.5493C85.7478 11.6173 85.4804 10.8952 84.9455 10.3829C84.418 9.87068 83.6302 9.61456 82.5823 9.61456C81.491 9.61456 80.6309 9.8529 80.0022 10.3296C79.3806 10.7991 78.9506 11.322 78.7121 11.8983L75.6659 11.2153C76.0272 10.2193 76.5548 9.41536 77.2486 8.80352C77.9496 8.18456 78.7555 7.73635 79.6661 7.45888C80.5767 7.1743 81.5343 7.03202 82.5389 7.03202C83.2038 7.03202 83.9085 7.11028 84.6529 7.26679C85.4045 7.4162 86.1055 7.69366 86.756 8.09918C87.4136 8.50471 87.9521 9.08454 88.3712 9.83867C88.7904 10.5857 89 11.5568 89 12.752V23.6372H85.8345V21.3961H85.7044C85.4948 21.8087 85.1804 22.2143 84.7613 22.6127C84.3421 23.0111 83.8037 23.3419 83.146 23.6051C82.4883 23.8684 81.7005 24 80.7827 24ZM81.4873 21.4388C82.3835 21.4388 83.1496 21.2645 83.7856 20.9159C84.4288 20.5673 84.9166 20.1119 85.2491 19.5499C85.5888 18.9808 85.7586 18.3725 85.7586 17.725V15.6121C85.643 15.7259 85.4189 15.8326 85.0865 15.9322C84.7613 16.0247 84.3891 16.1065 83.9699 16.1777C83.5507 16.2417 83.1424 16.3022 82.7449 16.3591C82.3474 16.4089 82.0149 16.4516 81.7475 16.4871C81.1188 16.5654 80.5442 16.697 80.0238 16.882C79.5107 17.067 79.0988 17.3338 78.788 17.6824C78.4845 18.0239 78.3327 18.4792 78.3327 19.0483C78.3327 19.838 78.629 20.4357 79.2216 20.8412C79.8143 21.2396 80.5695 21.4388 81.4873 21.4388Z" fill="#14151A"/>
</svg>
