<svg width="142" height="45" viewBox="0 0 142 45" fill="none" xmlns="http://www.w3.org/2000/svg">
<g clip-path="url(#clip0_4237_23422)">
<path d="M8.94189 38.1429C7.26493 38.1429 5.74877 37.8376 4.39341 37.227C3.03806 36.6051 1.96411 35.7062 1.17158 34.5303C0.390526 33.3544 0 31.9128 0 30.2054C0 28.7355 0.287151 27.5257 0.861454 26.5759C1.43576 25.6261 2.21107 24.8742 3.18738 24.3202C4.16369 23.7661 5.25487 23.3478 6.46091 23.0651C7.66694 22.7824 8.89595 22.5676 10.1479 22.4206C11.733 22.2397 13.0194 22.0927 14.0072 21.9796C14.995 21.8553 15.7129 21.6574 16.1609 21.386C16.6088 21.1147 16.8328 20.6737 16.8328 20.0631V19.9444C16.8328 18.4632 16.4078 17.3155 15.5579 16.5014C14.7194 15.6873 13.4674 15.2803 11.8019 15.2803C10.0675 15.2803 8.70068 15.6591 7.7014 16.4166C6.7136 17.1629 6.03018 17.9939 5.65114 18.9098L0.809767 17.8243C1.38407 16.2414 2.22255 14.9637 3.32521 13.9913C4.43936 13.0076 5.72005 12.2953 7.1673 11.8543C8.61454 11.402 10.1364 11.1759 11.733 11.1759C12.7897 11.1759 13.9096 11.3003 15.0927 11.549C16.2872 11.7865 17.4014 12.2274 18.4351 12.8719C19.4803 13.5164 20.3361 14.4379 21.0022 15.6365C21.6684 16.8237 22.0015 18.3671 22.0015 20.2666V37.5662H16.9706V34.0045H16.7639C16.4308 34.6603 15.9312 35.3048 15.265 35.938C14.5988 36.5712 13.7431 37.097 12.6978 37.5153C11.6526 37.9337 10.4006 38.1429 8.94189 38.1429ZM10.0618 34.0724C11.4861 34.0724 12.7036 33.7954 13.7143 33.2413C14.7366 32.6873 15.5119 31.9636 16.0403 31.0704C16.5801 30.1658 16.85 29.1991 16.85 28.1702V24.812C16.6663 24.9929 16.3102 25.1625 15.7818 25.3208C15.265 25.4678 14.6734 25.5978 14.0072 25.7109C13.3411 25.8127 12.6921 25.9088 12.0604 25.9992C11.4286 26.0784 10.9003 26.1462 10.4753 26.2028C9.47599 26.3271 8.56285 26.5363 7.73586 26.8303C6.92035 27.1243 6.26564 27.5483 5.77174 28.1023C5.28933 28.6451 5.04812 29.3687 5.04812 30.2733C5.04812 31.5283 5.51905 32.4781 6.46091 33.1226C7.40276 33.7558 8.60305 34.0724 10.0618 34.0724Z" fill="white" fill-opacity="0.9"/>
<path d="M50.5544 11.5151L40.9578 37.5662H35.4445L25.8307 11.5151H31.3612L38.0633 31.5622H38.339L45.0239 11.5151H50.5544Z" fill="white" fill-opacity="0.9"/>
<path d="M55.3958 37.5662V11.5151H60.375V15.6534H60.6507C61.1331 14.2514 61.983 13.1489 63.2006 12.3461C64.4296 11.532 65.8194 11.125 67.37 11.125C67.6916 11.125 68.0707 11.1363 68.5071 11.1589C68.9551 11.1815 69.3054 11.2098 69.5581 11.2437V16.0944C69.3513 16.0379 68.9838 15.9757 68.4554 15.9078C67.9271 15.8287 67.3987 15.7891 66.8704 15.7891C65.6528 15.7891 64.5674 16.0435 63.6141 16.5523C62.6722 17.0498 61.9256 17.7452 61.3743 18.6384C60.823 19.5204 60.5473 20.5267 60.5473 21.6574V37.5662H55.3958Z" fill="white" fill-opacity="0.9"/>
<path d="M84.2157 38.092C81.7347 38.092 79.5696 37.5323 77.7204 36.4129C75.8711 35.2935 74.4354 33.7275 73.4131 31.7149C72.3908 29.7022 71.8797 27.3504 71.8797 24.6594C71.8797 21.957 72.3908 19.5939 73.4131 17.5699C74.4354 15.546 75.8711 13.9743 77.7204 12.855C79.5696 11.7356 81.7347 11.1759 84.2157 11.1759C86.6967 11.1759 88.8618 11.7356 90.7111 12.855C92.5603 13.9743 93.9961 15.546 95.0184 17.5699C96.0406 19.5939 96.5518 21.957 96.5518 24.6594C96.5518 27.3504 96.0406 29.7022 95.0184 31.7149C93.9961 33.7275 92.5603 35.2935 90.7111 36.4129C88.8618 37.5323 86.6967 38.092 84.2157 38.092ZM84.233 33.8349C85.841 33.8349 87.1734 33.4166 88.2301 32.5799C89.2868 31.7431 90.0679 30.6294 90.5733 29.2387C91.0901 27.8479 91.3486 26.3158 91.3486 24.6424C91.3486 22.9803 91.0901 21.4539 90.5733 20.0631C90.0679 18.6611 89.2868 17.536 88.2301 16.688C87.1734 15.84 85.841 15.416 84.233 15.416C82.6134 15.416 81.2696 15.84 80.2014 16.688C79.1446 17.536 78.3578 18.6611 77.841 20.0631C77.3356 21.4539 77.0829 22.9803 77.0829 24.6424C77.0829 26.3158 77.3356 27.8479 77.841 29.2387C78.3578 30.6294 79.1446 31.7431 80.2014 32.5799C81.2696 33.4166 82.6134 33.8349 84.233 33.8349Z" fill="white" fill-opacity="0.9"/>
<path d="M102.302 37.5662V11.5151H107.281V15.6534H107.557C108.039 14.2514 108.889 13.1489 110.107 12.3461C111.336 11.532 112.726 11.125 114.276 11.125C114.598 11.125 114.977 11.1363 115.413 11.1589C115.861 11.1815 116.212 11.2098 116.464 11.2437V16.0944C116.258 16.0379 115.89 15.9757 115.362 15.9078C114.833 15.8287 114.305 15.7891 113.777 15.7891C112.559 15.7891 111.474 16.0435 110.52 16.5523C109.578 17.0498 108.832 17.7452 108.28 18.6384C107.729 19.5204 107.453 20.5267 107.453 21.6574V37.5662H102.302Z" fill="white" fill-opacity="0.9"/>
<path d="M128.387 38.1429C126.71 38.1429 125.194 37.8376 123.838 37.227C122.483 36.6051 121.409 35.7062 120.616 34.5303C119.835 33.3544 119.445 31.9128 119.445 30.2054C119.445 28.7355 119.732 27.5257 120.306 26.5759C120.881 25.6261 121.656 24.8742 122.632 24.3202C123.609 23.7661 124.7 23.3478 125.906 23.0651C127.112 22.7824 128.341 22.5676 129.593 22.4206C131.178 22.2397 132.464 22.0927 133.452 21.9796C134.44 21.8553 135.158 21.6574 135.606 21.386C136.054 21.1147 136.278 20.6737 136.278 20.0631V19.9444C136.278 18.4632 135.853 17.3155 135.003 16.5014C134.164 15.6873 132.912 15.2803 131.247 15.2803C129.512 15.2803 128.146 15.6591 127.146 16.4166C126.158 17.1629 125.475 17.9939 125.096 18.9098L120.255 17.8243C120.829 16.2414 121.667 14.9637 122.77 13.9913C123.884 13.0076 125.165 12.2953 126.612 11.8543C128.059 11.402 129.581 11.1759 131.178 11.1759C132.235 11.1759 133.355 11.3003 134.538 11.549C135.732 11.7865 136.846 12.2274 137.88 12.8719C138.925 13.5164 139.781 14.4379 140.447 15.6365C141.113 16.8237 141.446 18.3671 141.446 20.2666V37.5662H136.416V34.0045H136.209C135.876 34.6603 135.376 35.3048 134.71 35.938C134.044 36.5712 133.188 37.097 132.143 37.5153C131.097 37.9337 129.846 38.1429 128.387 38.1429ZM129.507 34.0724C130.931 34.0724 132.148 33.7954 133.159 33.2413C134.181 32.6873 134.957 31.9636 135.485 31.0704C136.025 30.1658 136.295 29.1991 136.295 28.1702V24.812C136.111 24.9929 135.755 25.1625 135.227 25.3208C134.71 25.4678 134.118 25.5978 133.452 25.7109C132.786 25.8127 132.137 25.9088 131.505 25.9992C130.874 26.0784 130.345 26.1462 129.92 26.2028C128.921 26.3271 128.008 26.5363 127.181 26.8303C126.365 27.1243 125.711 27.5483 125.217 28.1023C124.734 28.6451 124.493 29.3687 124.493 30.2733C124.493 31.5283 124.964 32.4781 125.906 33.1226C126.848 33.7558 128.048 34.0724 129.507 34.0724Z" fill="white" fill-opacity="0.9"/>
</g>
<defs>
<clipPath id="clip0_4237_23422">
<rect width="141.446" height="44.5" fill="white"/>
</clipPath>
</defs>
</svg>
