<svg width="37" height="42" viewBox="0 0 37 42" fill="none" xmlns="http://www.w3.org/2000/svg">
<path d="M18.5 42C16.5526 42 18.8564 38.9154 9.25584 34.1177C8.72987 33.8544 8.21946 33.5608 7.72716 33.2386C2.95026 30.1208 0 24.4186 0 18.2807C0 8.18512 8.28216 0 18.5 0C28.7178 0 37 8.18512 37 18.2788C37 25.0418 33.409 31.2832 27.7597 34.1099C18.1495 38.9135 20.4474 42 18.5 42ZM18.5 25.6102C22.6109 25.6102 25.9 22.344 25.9 18.3726C25.9 14.4011 22.6109 11.1349 18.5 11.1349C14.3891 11.1349 11.1 14.4011 11.1 18.3726C11.1 22.344 14.3891 25.6102 18.5 25.6102Z" fill="#FF185F"/>
</svg>
