<svg width="20" height="20" viewBox="0 0 20 20" fill="none" xmlns="http://www.w3.org/2000/svg">
<path d="M5.23465 16.5144C6.00056 16.5144 7.82743 15.7171 8.97001 14.9135C9.08929 14.8256 9.18973 14.7942 9.29018 14.7942C9.37179 14.8005 9.44713 14.8068 9.51618 14.8068C14.0425 14.8005 17.2819 12.3333 17.2819 8.94322C17.2819 5.69754 14.0363 3.08594 9.9933 3.08594C5.95033 3.08594 2.71094 5.69754 2.71094 8.94322C2.71094 10.9647 3.92885 12.7727 5.988 13.8839C6.101 13.953 6.13239 14.0472 6.07589 14.1602C5.71177 14.7691 5.10282 15.4471 4.8517 15.7673C4.5692 16.1251 4.73242 16.5144 5.23465 16.5144Z" fill="#14151A"/>
</svg>
