<svg width="16" height="16" viewBox="0 0 16 16" fill="none" xmlns="http://www.w3.org/2000/svg">
<path d="M4.18792 13.2115C4.80064 13.2115 6.26214 12.5737 7.1762 11.9308C7.27162 11.8605 7.35198 11.8354 7.43234 11.8354C7.49763 11.8404 7.5579 11.8454 7.61314 11.8454C11.2342 11.8404 13.8258 9.86663 13.8258 7.15458C13.8258 4.55804 11.2292 2.46875 7.99484 2.46875C4.76046 2.46875 2.16895 4.55804 2.16895 7.15458C2.16895 8.77176 3.14328 10.2182 4.7906 11.1071C4.881 11.1624 4.90611 11.2377 4.86091 11.3281C4.56961 11.8153 4.08245 12.3577 3.88156 12.6138C3.65555 12.9001 3.78613 13.2115 4.18792 13.2115Z" fill="#14151A"/>
</svg>
