<svg width="20" height="20" viewBox="0 0 20 20" fill="none" xmlns="http://www.w3.org/2000/svg">
<path d="M5.23465 16.5144C6.00056 16.5144 7.82743 15.7171 8.97001 14.9135C9.08929 14.8256 9.18973 14.7942 9.29018 14.7942C9.37179 14.8005 9.44713 14.8068 9.51618 14.8068C14.0425 14.8005 17.2819 12.3333 17.2819 8.94322C17.2819 5.69754 14.0363 3.08594 9.9933 3.08594C5.95033 3.08594 2.71094 5.69754 2.71094 8.94322C2.71094 10.9647 3.92885 12.7727 5.988 13.8839C6.101 13.953 6.13239 14.0472 6.07589 14.1602C5.71177 14.7691 5.10282 15.4471 4.8517 15.7673C4.5692 16.1251 4.73242 16.5144 5.23465 16.5144ZM9.99958 12.3019C9.66057 12.3019 9.40946 12.0633 9.40946 11.7243V8.66699L9.47224 7.3298L8.88839 8.05804L8.16016 8.81766C8.06599 8.92439 7.9216 8.98717 7.76465 8.98717C7.45075 8.98717 7.21847 8.76116 7.21847 8.45354C7.21847 8.29032 7.26869 8.17104 7.37542 8.05176L9.52874 5.86705C9.67941 5.71638 9.81752 5.64732 9.99958 5.64732C10.1879 5.64732 10.3323 5.72266 10.4767 5.86705L12.6237 8.05176C12.7367 8.17104 12.787 8.29032 12.787 8.45354C12.787 8.76116 12.5547 8.98717 12.2408 8.98717C12.0838 8.98717 11.9395 8.92439 11.839 8.81766L11.1233 8.06431L10.5332 7.32352L10.596 8.66699V11.7243C10.596 12.0633 10.3449 12.3019 9.99958 12.3019Z" fill="#14151A"/>
</svg>
