<svg width="192" height="192" viewBox="0 0 192 192" fill="none" xmlns="http://www.w3.org/2000/svg">
<path d="M50.257 158.538C57.6097 158.538 75.1476 150.884 86.1164 143.17C87.2614 142.326 88.2257 142.025 89.19 142.025C89.9735 142.085 90.6967 142.145 91.3597 142.145C134.813 142.085 165.911 118.4 165.911 85.8549C165.911 54.6964 134.753 29.625 95.94 29.625C57.1275 29.625 26.0293 54.6964 26.0293 85.8549C26.0293 105.261 37.7213 122.618 57.4891 133.286C58.5739 133.949 58.8753 134.853 58.3329 135.938C54.8373 141.783 48.9914 148.292 46.5806 151.366C43.8686 154.801 45.4355 158.538 50.257 158.538Z" fill="#0A0F29" fill-opacity="0.25"/>
</svg>
