<svg width="17" height="16" viewBox="0 0 17 16" fill="none" xmlns="http://www.w3.org/2000/svg">
<path d="M11.262 9.46987C8.60519 9.46987 6.91769 7.82255 6.91769 5.1808C6.91769 4.60324 7.05329 3.83482 7.2341 3.42801C7.29436 3.29743 7.30943 3.20703 7.30943 3.13672C7.30943 2.976 7.19392 2.82031 6.988 2.82031C6.91267 2.82031 6.79213 2.8404 6.66657 2.8856C4.79827 3.63393 3.55273 5.6077 3.55273 7.70201C3.55273 10.6501 5.78264 12.7645 8.7207 12.7645C10.8502 12.7645 12.7134 11.4788 13.3714 9.80134C13.4266 9.67076 13.4417 9.54018 13.4417 9.46987C13.4417 9.274 13.291 9.14342 13.1303 9.14342C13.0449 9.14342 12.9646 9.1635 12.8491 9.21373C12.4724 9.34431 11.8647 9.46987 11.262 9.46987Z" fill="white" fill-opacity="0.46"/>
</svg>
