<svg width="17" height="16" viewBox="0 0 17 16" fill="none" xmlns="http://www.w3.org/2000/svg">
<path d="M6.36063 10.1076C7.84222 11.5942 9.64523 12.7393 11.1168 12.7393C11.7747 12.7393 12.3523 12.5083 12.8143 11.996C13.0855 11.6947 13.2513 11.3481 13.2513 11.0016C13.2513 10.7354 13.1458 10.4743 12.8896 10.2935L11.3478 9.19859C11.1017 9.02783 10.9008 8.94747 10.72 8.94747C10.484 8.94747 10.273 9.07805 10.042 9.30908L9.68038 9.67069C9.62012 9.72593 9.5498 9.75105 9.48451 9.75105C9.40416 9.75105 9.32882 9.72091 9.2786 9.69078C8.96219 9.52002 8.41978 9.05797 7.91755 8.55573C7.41532 8.0535 6.94824 7.51611 6.78251 7.19468C6.75237 7.13944 6.72726 7.06913 6.72726 6.98877C6.72726 6.9285 6.74735 6.85819 6.80259 6.79792L7.1642 6.43129C7.39021 6.19524 7.52581 5.98933 7.52581 5.75328C7.52581 5.56745 7.44545 5.36656 7.27469 5.12549L6.18485 3.5987C5.99902 3.33754 5.73786 3.22705 5.45159 3.22705C5.11007 3.22705 4.76855 3.37772 4.47224 3.66399C3.97001 4.13609 3.74902 4.7237 3.74902 5.37158C3.74902 6.84312 4.87905 8.62605 6.36063 10.1076Z" fill="white" fill-opacity="0.9"/>
</svg>
