<svg width="20" height="20" viewBox="0 0 20 20" fill="none" xmlns="http://www.w3.org/2000/svg">
<path d="M3.74679 14.0225H16.2461C17.3887 14.0225 17.9851 13.4449 17.9851 12.2835V5.03878C17.9851 3.87737 17.3887 3.2998 16.2461 3.2998H3.74679C2.60421 3.2998 2.00781 3.87737 2.00781 5.03878V12.2835C2.00781 13.4449 2.60421 14.0225 3.74679 14.0225ZM3.22573 5.11412C3.22573 4.68722 3.41406 4.51772 3.8284 4.51772H16.1645C16.5788 4.51772 16.7672 4.68722 16.7672 5.11412V11.6557L13.3834 8.48535C13.1071 8.22796 12.7807 8.1024 12.4417 8.1024C12.1027 8.1024 11.7888 8.22168 11.5 8.47907L8.40499 11.2476L6.97991 9.96694C6.72252 9.72838 6.43373 9.6091 6.13239 9.6091C5.84361 9.6091 5.57994 9.72838 5.32882 9.95438L3.22573 11.8378V5.11412ZM7.38797 8.63602C8.2041 8.63602 8.88211 7.95801 8.88211 7.12305C8.88211 6.30064 8.2041 5.61635 7.38797 5.61635C6.55301 5.61635 5.86872 6.30064 5.86872 7.12305C5.86872 7.95801 6.55301 8.63602 7.38797 8.63602ZM6.7853 16.2197H13.2076C13.5215 16.2197 13.7789 15.9623 13.7789 15.6484C13.7789 15.3345 13.5215 15.0709 13.2076 15.0709H6.7853C6.4714 15.0709 6.21401 15.3345 6.21401 15.6484C6.21401 15.9623 6.4714 16.2197 6.7853 16.2197Z" fill="#14151A"/>
</svg>
