<svg width="16" height="16" viewBox="0 0 16 16" fill="none" xmlns="http://www.w3.org/2000/svg">
<path d="M4.36356 8.375H7.42718V11.4386C7.42718 11.75 7.68331 12.0112 7.99972 12.0112C8.31613 12.0112 8.57227 11.75 8.57227 11.4386V8.375H11.6359C11.9473 8.375 12.2084 8.11886 12.2084 7.80246C12.2084 7.48605 11.9473 7.22991 11.6359 7.22991H8.57227V4.16629C8.57227 3.85491 8.31613 3.59375 7.99972 3.59375C7.68331 3.59375 7.42718 3.85491 7.42718 4.16629V7.22991H4.36356C4.05218 7.22991 3.79102 7.48605 3.79102 7.80246C3.79102 8.11886 4.05218 8.375 4.36356 8.375Z" fill="white" fill-opacity="0.9"/>
</svg>
