<svg width="17" height="16" viewBox="0 0 17 16" fill="none" xmlns="http://www.w3.org/2000/svg">
<path d="M7.93276 4.15126C7.99805 4.15126 8.03823 4.11108 8.04827 4.04579C8.19894 3.21711 8.18889 3.20707 9.05776 3.03631C9.12305 3.02626 9.16825 2.98608 9.16825 2.91577C9.16825 2.85048 9.12305 2.8103 9.05776 2.80026C8.19392 2.63452 8.21401 2.61945 8.04827 1.79077C8.03823 1.72548 7.99805 1.6853 7.93276 1.6853C7.86747 1.6853 7.82729 1.72548 7.81222 1.79077C7.65151 2.60941 7.67662 2.62448 6.80273 2.80026C6.73744 2.8103 6.69727 2.85048 6.69727 2.91577C6.69727 2.98608 6.73744 3.02626 6.80776 3.03631C7.6716 3.20707 7.66657 3.21711 7.81222 4.04579C7.82729 4.11108 7.86747 4.15126 7.93276 4.15126ZM5.49693 7.66689C5.59738 7.66689 5.67271 7.59658 5.68778 7.49613C5.86356 6.16521 5.90374 6.16019 7.2899 5.89903C7.38532 5.88396 7.46066 5.81365 7.46066 5.70818C7.46066 5.60774 7.38532 5.5324 7.28488 5.51733C5.90876 5.32649 5.85854 5.28631 5.68778 3.93028C5.67271 3.82481 5.59738 3.7545 5.49693 3.7545C5.39146 3.7545 5.31613 3.82481 5.30608 3.9353C5.14035 5.2612 5.08008 5.2612 3.70396 5.51733C3.60352 5.53742 3.5332 5.60774 3.5332 5.70818C3.5332 5.81867 3.60352 5.88396 3.72405 5.89903C5.0851 6.11499 5.14035 6.15517 5.30608 7.48608C5.31613 7.59658 5.39146 7.66689 5.49693 7.66689ZM8.9774 13.2166C9.12305 13.2166 9.23354 13.1111 9.25363 12.9604C9.61523 10.2383 10.002 9.81142 12.6939 9.5151C12.8496 9.49501 12.9601 9.3795 12.9601 9.23385C12.9601 9.0882 12.8496 8.97269 12.6939 8.9526C10.012 8.64122 9.6303 8.23943 9.25363 5.50729C9.22852 5.35662 9.12305 5.25115 8.9774 5.25115C8.83175 5.25115 8.72126 5.35662 8.70117 5.50729C8.33956 8.22939 7.95285 8.65629 5.26088 8.9526C5.10017 8.97269 4.9947 9.0882 4.9947 9.23385C4.9947 9.3795 5.10017 9.49501 5.26088 9.5151C7.93276 9.87169 8.30441 10.2283 8.70117 12.9604C8.72628 13.1111 8.83175 13.2166 8.9774 13.2166Z" fill="#0D1126" fill-opacity="0.4"/>
</svg>
