<svg width="16" height="16" viewBox="0 0 16 16" fill="none" xmlns="http://www.w3.org/2000/svg">
<path d="M7.99484 12.9955C10.8425 12.9955 13.1929 10.6451 13.1929 7.80246C13.1929 4.95982 10.8375 2.60938 7.98982 2.60938C5.14718 2.60938 2.80176 4.95982 2.80176 7.80246C2.80176 10.6451 5.1522 12.9955 7.99484 12.9955ZM7.98982 8.62109C7.00544 8.61607 6.24205 7.79241 6.24205 6.70257C6.232 5.67801 7.01046 4.82422 7.98982 4.82422C8.96917 4.82422 9.73758 5.67801 9.73758 6.70257C9.73758 7.79241 8.97419 8.63114 7.98982 8.62109ZM7.98982 12.1367C6.86482 12.1367 5.6695 11.6696 4.91113 10.856C5.4887 9.99219 6.63379 9.48996 7.98982 9.48996C9.33078 9.48996 10.4859 9.98214 11.0685 10.856C10.3101 11.6696 9.11482 12.1367 7.98982 12.1367Z" fill="#0D1126" fill-opacity="0.4"/>
</svg>
