<svg width="192" height="192" viewBox="0 0 192 192" fill="none" xmlns="http://www.w3.org/2000/svg">
<path d="M50.257 158.538C57.6097 158.538 75.1476 150.884 86.1164 143.17C87.2614 142.326 88.2257 142.025 89.19 142.025C89.9735 142.085 90.6967 142.145 91.3597 142.145C134.813 142.085 165.911 118.4 165.911 85.8549C165.911 54.6964 134.753 29.625 95.94 29.625C57.1275 29.625 26.0293 54.6964 26.0293 85.8549C26.0293 105.261 37.7213 122.618 57.4891 133.286C58.5739 133.949 58.8753 134.853 58.3329 135.938C54.8373 141.783 48.9914 148.292 46.5806 151.366C43.8686 154.801 45.4355 158.538 50.257 158.538ZM96.0003 118.098C92.7458 118.098 90.3351 115.808 90.3351 112.554V83.2031L90.9378 70.3661L85.3329 77.3571L78.3418 84.6496C77.4378 85.6741 76.0516 86.2768 74.5449 86.2768C71.5315 86.2768 69.3016 84.1071 69.3016 81.154C69.3016 79.5871 69.7838 78.442 70.8083 77.2969L91.4802 56.3237C92.9266 54.8772 94.2525 54.2143 96.0003 54.2143C97.8083 54.2143 99.1945 54.9375 100.581 56.3237L121.192 77.2969C122.277 78.442 122.759 79.5871 122.759 81.154C122.759 84.1071 120.529 86.2768 117.516 86.2768C116.009 86.2768 114.623 85.6741 113.659 84.6496L106.788 77.4174L101.123 70.3058L101.726 83.2031V112.554C101.726 115.808 99.315 118.098 96.0003 118.098Z" fill="#0A0F29" fill-opacity="0.25"/>
</svg>
