<svg width="25" height="24" viewBox="0 0 25 24" fill="none" xmlns="http://www.w3.org/2000/svg">
<path d="M11.2423 16.3142C12.4402 16.3142 13.5626 15.9526 14.4968 15.3349L17.7965 18.6421C18.0149 18.853 18.2937 18.9585 18.595 18.9585C19.2203 18.9585 19.6798 18.4688 19.6798 17.8511C19.6798 17.5648 19.5819 17.2861 19.371 17.0751L16.0939 13.783C16.7719 12.8187 17.1712 11.651 17.1712 10.3854C17.1712 7.1234 14.5043 4.45654 11.2423 4.45654C7.98786 4.45654 5.31348 7.1234 5.31348 10.3854C5.31348 13.6474 7.98033 16.3142 11.2423 16.3142ZM11.2423 14.7322C8.85421 14.7322 6.89551 12.7735 6.89551 10.3854C6.89551 7.99728 8.85421 6.03857 11.2423 6.03857C13.6304 6.03857 15.5891 7.99728 15.5891 10.3854C15.5891 12.7735 13.6304 14.7322 11.2423 14.7322Z" fill="white" fill-opacity="0.9"/>
</svg>
