<svg width="16" height="16" viewBox="0 0 16 16" fill="none" xmlns="http://www.w3.org/2000/svg">
<path d="M7.16155 10.8761C7.9601 10.8761 8.70843 10.635 9.33119 10.2232L11.531 12.428C11.6766 12.5686 11.8624 12.6389 12.0633 12.6389C12.4802 12.6389 12.7866 12.3125 12.7866 11.9006C12.7866 11.7098 12.7213 11.524 12.5806 11.3833L10.3959 9.18858C10.8479 8.54572 11.1141 7.76726 11.1141 6.92351C11.1141 4.74885 9.33622 2.97095 7.16155 2.97095C4.99191 2.97095 3.20898 4.74885 3.20898 6.92351C3.20898 9.09818 4.98689 10.8761 7.16155 10.8761ZM7.16155 9.82139C5.56948 9.82139 4.26367 8.51559 4.26367 6.92351C4.26367 5.33144 5.56948 4.02563 7.16155 4.02563C8.75363 4.02563 10.0594 5.33144 10.0594 6.92351C10.0594 8.51559 8.75363 9.82139 7.16155 9.82139Z" fill="#0D1126" fill-opacity="0.4"/>
</svg>
