<svg width="17" height="16" viewBox="0 0 17 16" fill="none" xmlns="http://www.w3.org/2000/svg">
<path d="M9.0127 2.67927C9.0127 2.40304 8.77665 2.16699 8.50042 2.16699C8.22419 2.16699 7.99316 2.40304 7.99316 2.67927V3.6988C7.99316 3.97503 8.22419 4.20605 8.50042 4.20605C8.77665 4.20605 9.0127 3.97503 9.0127 3.6988V2.67927ZM11.0216 4.54757C10.8258 4.74344 10.8258 5.06989 11.0266 5.26576C11.2175 5.46164 11.549 5.46164 11.7448 5.26074L12.4681 4.53753C12.6639 4.34668 12.6639 4.01018 12.4681 3.81431C12.2722 3.62347 11.9457 3.62347 11.7499 3.81934L11.0216 4.54757ZM5.256 5.26074C5.44685 5.46164 5.77832 5.46164 5.97419 5.26576C6.17006 5.07492 6.17006 4.73842 5.97921 4.54757L5.256 3.81934C5.06515 3.62849 4.73368 3.62347 4.53781 3.81431C4.34194 4.01018 4.34194 4.34668 4.53278 4.53251L5.256 5.26074ZM8.50042 5.13518C7.05399 5.13518 5.85366 6.3305 5.85366 7.78195C5.85366 9.2334 7.05399 10.4287 8.50042 10.4287C9.94685 10.4287 11.1422 9.2334 11.1422 7.78195C11.1422 6.3305 9.94685 5.13518 8.50042 5.13518ZM13.5981 8.29422C13.8743 8.29422 14.1053 8.05818 14.1053 7.78195C14.1053 7.50572 13.8743 7.27469 13.5981 7.27469H12.5785C12.3023 7.27469 12.0713 7.50572 12.0713 7.78195C12.0713 8.05818 12.3023 8.29422 12.5785 8.29422H13.5981ZM3.40778 7.27469C3.12653 7.27469 2.89551 7.50572 2.89551 7.78195C2.89551 8.05818 3.12653 8.29422 3.40778 8.29422H4.42229C4.69852 8.29422 4.93457 8.05818 4.93457 7.78195C4.93457 7.50572 4.69852 7.27469 4.42229 7.27469H3.40778ZM11.7398 10.3032C11.5439 10.1073 11.2175 10.1123 11.0216 10.3082C10.8258 10.499 10.8258 10.8255 11.0266 11.0264L11.7549 11.7496C11.9457 11.9455 12.2772 11.9404 12.4731 11.7446C12.6639 11.5487 12.6639 11.2222 12.4681 11.0264L11.7398 10.3032ZM4.53278 11.0213C4.33691 11.2172 4.33189 11.5487 4.52274 11.7395C4.71861 11.9354 5.05511 11.9404 5.24595 11.7496L5.97419 11.0264C6.17006 10.8305 6.17006 10.499 5.97921 10.3082C5.78334 10.1123 5.45187 10.1123 5.256 10.3032L4.53278 11.0213ZM9.0127 11.8651C9.0127 11.5889 8.77665 11.3578 8.50042 11.3578C8.22419 11.3578 7.99316 11.5889 7.99316 11.8651V12.8846C7.99316 13.1609 8.22419 13.3969 8.50042 13.3969C8.77665 13.3969 9.0127 13.1609 9.0127 12.8846V11.8651Z" fill="#0D1126" fill-opacity="0.4"/>
</svg>
