<svg width="16" height="16" viewBox="0 0 16 16" fill="none" xmlns="http://www.w3.org/2000/svg">
<path d="M0.993652 10.2382C0.993652 11.308 1.55615 11.8655 2.63595 11.8655H12.4044C14.0919 11.8655 15.0059 10.8962 15.0059 9.69081C15.0059 8.96258 14.6694 8.17909 13.9814 7.49606L11.9172 5.44695C10.5913 4.13613 9.73751 3.74438 8.17055 3.74438H2.63595C1.55615 3.74438 0.993652 4.30186 0.993652 5.37162V10.2382ZM6.49812 7.83758V6.03456C6.49812 5.74829 6.66888 5.57753 6.95515 5.57753H8.20068C9.65716 5.57753 10.2799 5.76336 10.9831 6.46146L12.093 7.56135C12.3943 7.86269 12.2236 8.28959 11.8971 8.28959H6.95515C6.66888 8.28959 6.49812 8.1138 6.49812 7.83758Z" fill="#0D1126" fill-opacity="0.4"/>
</svg>
