<svg width="20" height="21" viewBox="0 0 20 21" fill="none" xmlns="http://www.w3.org/2000/svg">
<path d="M15.1917 7.53178C15.1969 7.64679 15.1995 7.76233 15.1995 7.87839C15.1995 11.4183 12.5048 15.5 7.57819 15.5C6.06532 15.5 4.65711 15.0565 3.47168 14.2964C3.68151 14.3213 3.89445 14.334 4.11077 14.334C5.36588 14.334 6.52072 13.9057 7.43778 13.1871C6.26531 13.1656 5.27624 12.3911 4.93534 11.3269C5.09907 11.3582 5.26669 11.3751 5.43947 11.3751C5.68348 11.3751 5.92024 11.3422 6.14512 11.281C4.9198 11.0349 3.99625 9.95234 3.99625 8.65448C3.99625 8.64309 3.99625 8.63195 3.99653 8.62081C4.35765 8.82131 4.77058 8.94178 5.20991 8.95576C4.49105 8.4755 4.01827 7.65558 4.01827 6.7261C4.01827 6.2352 4.15012 5.77513 4.38092 5.37954C5.70211 7.00016 7.67554 8.06642 9.90185 8.17833C9.85627 7.98223 9.83241 7.77784 9.83241 7.56776C9.83241 6.08857 11.0318 4.88916 12.511 4.88916C13.282 4.88916 13.9778 5.21453 14.4663 5.73496C15.0767 5.61502 15.6497 5.39199 16.1672 5.08499C15.9673 5.71061 15.5429 6.23543 14.9896 6.56701C15.5315 6.50224 16.0481 6.35823 16.5284 6.14529C16.1693 6.68233 15.715 7.15406 15.1917 7.53178Z" fill="#14151A"/>
</svg>
