<svg width="16" height="16" viewBox="0 0 16 16" fill="none" xmlns="http://www.w3.org/2000/svg">
<path d="M3.82624 11.936H9.10972C10.1945 11.936 10.8173 11.3283 10.8173 10.2635V5.33161C10.8173 4.26688 10.2347 3.65918 9.1499 3.65918H3.82624C2.7816 3.65918 2.11865 4.26688 2.11865 5.33161V10.2987C2.11865 11.3584 2.74644 11.936 3.82624 11.936ZM11.5556 9.41476L13.2732 10.8913C13.4791 11.0721 13.7001 11.1876 13.9111 11.1876C14.3179 11.1876 14.5941 10.8963 14.5941 10.4544V5.16588C14.5941 4.72391 14.3179 4.43262 13.9111 4.43262C13.6951 4.43262 13.4791 4.54813 13.2732 4.72893L11.5556 6.2055V9.41476Z" fill="#14151A"/>
</svg>
