<svg width="17" height="16" viewBox="0 0 17 16" fill="none" xmlns="http://www.w3.org/2000/svg">
<path fill-rule="evenodd" clip-rule="evenodd" d="M11.4105 10.0605C11.29 10.4016 10.811 10.6838 10.429 10.7664C10.1675 10.8219 9.8265 10.8658 8.6775 10.3896C7.387 9.85499 5.595 7.95049 5.595 6.68311C5.595 6.03791 5.967 5.28662 6.6175 5.28662C6.9305 5.28662 6.9995 5.29272 7.1025 5.53979C7.223 5.83088 7.517 6.54806 7.552 6.62158C7.6965 6.92317 7.405 7.09972 7.1935 7.3623C7.126 7.44132 7.0495 7.52679 7.135 7.67383C7.22 7.81787 7.514 8.29703 7.946 8.68164C8.504 9.17879 8.9565 9.33751 9.1185 9.40503C9.239 9.45504 9.383 9.4434 9.471 9.34937C9.5825 9.22883 9.721 9.02885 9.862 8.83179C9.9615 8.69074 10.088 8.67313 10.2205 8.72314C10.31 8.75415 11.4475 9.28242 11.4955 9.36694C11.531 9.42846 11.531 9.71944 11.4105 10.0605ZM8.501 3H8.4985C5.742 3 3.5 5.24268 3.5 8C3.5 9.09333 3.8525 10.1077 4.452 10.9304L3.829 12.7883L5.7505 12.1743C6.541 12.6975 7.4845 13 8.501 13C11.2575 13 13.5 10.7573 13.5 8C13.5 5.24268 11.2575 3 8.501 3Z" fill="white" fill-opacity="0.9"/>
</svg>
