<svg width="16" height="16" viewBox="0 0 16 16" fill="none" xmlns="http://www.w3.org/2000/svg">
<path d="M11.7919 9.6558L11.7868 4.61339C11.7868 4.26182 11.5558 4.02075 11.1942 4.02075H6.14676C5.80525 4.02075 5.5692 4.27689 5.5692 4.57823C5.5692 4.87455 5.82533 5.12064 6.1317 5.12064H7.93471L10.0642 5.05033L9.15011 5.8539L4.38393 10.6251C4.26842 10.7456 4.20312 10.8863 4.20312 11.0269C4.20312 11.3232 4.47433 11.6045 4.78069 11.6045C4.92132 11.6045 5.06194 11.5442 5.18248 11.4287L9.95368 6.65747L10.7673 5.74341L10.6819 7.78247V9.67086C10.6819 9.98225 10.928 10.2434 11.2344 10.2434C11.5357 10.2434 11.7919 9.98727 11.7919 9.6558Z" fill="#14151A"/>
</svg>
