<svg width="28" height="28" viewBox="0 0 28 28" fill="none" xmlns="http://www.w3.org/2000/svg">
<path d="M7.85742 13.5514C7.85742 13.8126 8.05831 14.0386 8.37974 14.0386C8.53544 14.0386 8.67606 13.9532 8.80162 13.8527L13.7838 9.66915C13.9244 9.54862 14.0851 9.54862 14.2257 9.66915L19.2028 13.8527C19.3234 13.9532 19.464 14.0386 19.6197 14.0386C19.916 14.0386 20.142 13.8527 20.142 13.5615C20.142 13.3907 20.0767 13.2551 19.9461 13.1446L18.5349 11.9593V9.87005C18.5349 9.64404 18.3892 9.50342 18.1632 9.50342H17.4701C17.2492 9.50342 17.0985 9.64404 17.0985 9.87005V10.749L14.7179 8.75007C14.281 8.38344 13.7285 8.38344 13.2916 8.75007L8.05831 13.1446C7.92271 13.2551 7.85742 13.4058 7.85742 13.5514ZM9.48968 18.0665C9.48968 18.7897 9.94169 19.2266 10.69 19.2266H17.3145C18.0578 19.2266 18.5148 18.7897 18.5148 18.0665V14.2495L14.3111 10.7289C14.1152 10.5581 13.8792 10.5631 13.6883 10.7289L9.48968 14.2495V18.0665ZM15.3206 18.2824H12.6839V15.0681C12.6839 14.8321 12.8396 14.6814 13.0756 14.6814H14.9339C15.1699 14.6814 15.3206 14.8321 15.3206 15.0681V18.2824Z" fill="#14151A"/>
</svg>
