<svg width="16" height="16" viewBox="0 0 16 16" fill="none" xmlns="http://www.w3.org/2000/svg">
<path d="M2.61112 12.6842H3.21882C3.60052 12.6842 3.89683 12.3878 3.89683 12.0061V11.1373C5.01681 11.2076 6.66915 11.2628 8.00007 11.2628C9.33098 11.2628 10.9833 11.2126 12.0983 11.1373V12.0061C12.0983 12.3878 12.3946 12.6842 12.7813 12.6842H13.384C13.7707 12.6842 14.067 12.3878 14.067 12.0061V9.0279C14.067 8.13895 13.9013 7.64676 13.4342 7.03906L12.9872 6.47656C12.8014 5.57757 12.4699 4.62835 12.2942 4.2567C12.0129 3.65904 11.4705 3.30748 10.7774 3.21205C10.4108 3.16183 9.33601 3.13672 8.00007 3.13672C6.66413 3.13672 5.58433 3.16685 5.22273 3.21205C4.52965 3.29743 3.98221 3.65904 3.70598 4.2567C3.5302 4.62835 3.19873 5.57757 3.0129 6.47656L2.56592 7.03906C2.09382 7.64676 1.93311 8.13895 1.93311 9.0279V12.0061C1.93311 12.3878 2.22942 12.6842 2.61112 12.6842ZM4.1379 6.01451C4.25342 5.5173 4.4744 4.85435 4.62507 4.58817C4.77072 4.32199 4.93645 4.2115 5.24784 4.17132C5.60442 4.12109 6.46324 4.09096 8.00007 4.09096C9.53188 4.09096 10.3957 4.11105 10.7523 4.17132C11.0637 4.21652 11.2244 4.32199 11.3751 4.58817C11.5308 4.84933 11.7367 5.5173 11.8572 6.01451C11.9125 6.23047 11.817 6.33091 11.591 6.32087C10.8176 6.27567 9.84326 6.22545 8.00007 6.22545C6.15688 6.22545 5.18255 6.27567 4.40911 6.32087C4.17808 6.33091 4.0927 6.23047 4.1379 6.01451ZM4.31871 9.85658C3.84159 9.85658 3.47496 9.49498 3.47496 9.01786C3.47496 8.53571 3.84159 8.17411 4.31871 8.17411C4.79583 8.17411 5.15744 8.53571 5.15744 9.01786C5.15744 9.49498 4.79583 9.85658 4.31871 9.85658ZM11.6814 9.85658C11.1993 9.85658 10.8377 9.49498 10.8377 9.01786C10.8377 8.53571 11.1993 8.17411 11.6814 8.17411C12.1586 8.17411 12.5202 8.53571 12.5202 9.01786C12.5202 9.49498 12.1586 9.85658 11.6814 9.85658ZM6.64404 9.64565C6.28244 9.64565 6.03132 9.39453 6.03132 9.03795C6.03132 8.68136 6.28244 8.43025 6.64404 8.43025H9.3561C9.71268 8.43025 9.9638 8.68136 9.9638 9.03795C9.9638 9.39453 9.71268 9.64565 9.3561 9.64565H6.64404Z" fill="#0D1126" fill-opacity="0.4"/>
</svg>
