<svg width="65" height="65" viewBox="0 0 65 65" fill="none" xmlns="http://www.w3.org/2000/svg">
<g clip-path="url(#clip0_4030_60618)">
<path d="M32.4691 64.4099C50.089 64.4099 64.6324 49.8665 64.6324 32.2777C64.6324 14.6889 50.0579 0.145508 32.438 0.145508C14.8492 0.145508 0.336914 14.6889 0.336914 32.2777C0.336914 49.8665 14.8803 64.4099 32.4691 64.4099ZM32.4691 37.5916C30.6356 37.5916 29.5791 36.5661 29.5169 34.7016L29.0819 19.1949C29.0197 17.2682 30.387 15.9319 32.438 15.9319C34.4269 15.9319 35.8874 17.2992 35.8253 19.2259L35.3281 34.7016C35.2659 36.5972 34.2404 37.5916 32.4691 37.5916ZM32.4691 48.3438C30.356 48.3438 28.6157 46.8211 28.6157 44.7701C28.6157 42.7191 30.3249 41.1964 32.4691 41.1964C34.5822 41.1964 36.2914 42.7191 36.2914 44.7701C36.2914 46.8522 34.5512 48.3438 32.4691 48.3438Z" fill="#0A0F29" fill-opacity="0.25"/>
</g>
<defs>
<clipPath id="clip0_4030_60618">
<rect width="65" height="65" fill="white"/>
</clipPath>
</defs>
</svg>
