<svg width="16" height="16" viewBox="0 0 16 16" fill="none" xmlns="http://www.w3.org/2000/svg">
<path d="M6.5888 11.3232L8.98444 12.6591C9.10498 12.7244 9.20543 12.7746 9.33098 12.8048V4.46268L7.00063 3.05643C6.84996 2.96603 6.70933 2.90074 6.5888 2.87061V11.3232ZM2.70654 11.9962C2.70654 12.4331 2.98277 12.6742 3.38456 12.6742C3.5302 12.6742 3.68087 12.629 3.85163 12.5386L5.85052 11.4538V2.92585C5.74003 2.97105 5.60944 3.0263 5.47384 3.10665L3.20375 4.39739C2.86223 4.58824 2.70654 4.85944 2.70654 5.24114V11.9962ZM10.0642 12.7796C10.1245 12.7646 10.1848 12.7395 10.24 12.6993L12.7813 11.2629C13.1329 11.067 13.2936 10.8009 13.2936 10.4192V3.69929C13.2936 3.24226 13.0123 3.01625 12.5854 3.01625C12.4298 3.01625 12.264 3.06145 12.0882 3.15688L10.0642 4.28188V12.7796Z" fill="#0D1126" fill-opacity="0.4"/>
</svg>
