<svg width="16" height="16" viewBox="0 0 16 16" fill="none" xmlns="http://www.w3.org/2000/svg">
<path d="M8.78327 4.00565C8.84856 4.00565 8.88874 3.96045 8.89879 3.90018C9.04946 3.06648 9.04443 3.05141 9.90827 2.89069C9.97356 2.87563 10.0188 2.84047 10.0188 2.77016C10.0188 2.70487 9.97356 2.66469 9.9133 2.64962C9.04443 2.47886 9.06452 2.4638 8.89879 1.64516C8.88874 1.57987 8.84856 1.53467 8.78327 1.53467C8.71798 1.53467 8.6778 1.57987 8.66776 1.64014C8.50202 2.46882 8.52713 2.48891 7.65827 2.64962C7.59298 2.66469 7.54778 2.70487 7.54778 2.77016C7.54778 2.84047 7.59298 2.87563 7.65325 2.89069C8.52713 3.06648 8.51709 3.0715 8.66776 3.90018C8.6778 3.96045 8.71798 4.00565 8.78327 4.00565ZM11.199 7.47105C11.2995 7.47105 11.3748 7.40074 11.3899 7.29025C11.5506 5.95933 11.6108 5.91915 12.9669 5.70822C13.0874 5.68813 13.1577 5.62284 13.1577 5.51235C13.1577 5.4119 13.0874 5.34159 12.987 5.3215C11.6159 5.05532 11.5506 5.07038 11.3899 3.73947C11.3748 3.62898 11.2995 3.55866 11.199 3.55866C11.0935 3.55866 11.0182 3.62898 11.0031 3.73444C10.8324 5.09047 10.7872 5.13065 9.40604 5.3215C9.30559 5.33657 9.23528 5.4119 9.23528 5.51235C9.23528 5.61782 9.30559 5.68813 9.40604 5.70822C10.7922 5.97942 10.8274 5.96938 11.0031 7.30029C11.0182 7.40074 11.0935 7.47105 11.199 7.47105ZM7.31173 12.3477C9.18004 12.3477 10.7269 11.3734 11.42 9.75119C11.5104 9.5302 11.5003 9.3494 11.3899 9.23891C11.2995 9.14851 11.1287 9.13344 10.9479 9.2138C10.531 9.38456 10.0288 9.47496 9.47133 9.47496C7.22133 9.47496 5.74477 8.04862 5.74477 5.84884C5.74477 5.26625 5.86028 4.61837 6.04611 4.23668C6.14655 4.02574 6.14153 3.84996 6.05113 3.73947C5.95068 3.62395 5.76486 3.60889 5.53383 3.69929C3.91664 4.34215 2.82178 6.01458 2.82178 7.90799C2.82178 10.4493 4.69008 12.3477 7.31173 12.3477Z" fill="#0D1126" fill-opacity="0.4"/>
</svg>
