<svg width="16" height="16" viewBox="0 0 16 16" fill="none" xmlns="http://www.w3.org/2000/svg">
<path d="M3.95724 9.95714H5.30322L4.87633 12.0715C4.86628 12.1268 4.85624 12.2071 4.85624 12.2624C4.85624 12.5587 5.05713 12.7244 5.35847 12.7244C5.66985 12.7244 5.88079 12.5637 5.94608 12.2423L6.40311 9.95714H8.57778L8.15088 12.0715C8.14083 12.1268 8.13079 12.2071 8.13079 12.2624C8.13079 12.5587 8.33168 12.7244 8.628 12.7244C8.94441 12.7244 9.15534 12.5637 9.21561 12.2423L9.67766 9.95714H11.2647C11.6263 9.95714 11.8624 9.72109 11.8624 9.37455C11.8624 9.09832 11.6715 8.89743 11.3802 8.89743H9.8886L10.3707 6.51182H11.9327C12.2893 6.51182 12.5253 6.27075 12.5253 5.92421C12.5253 5.64798 12.3395 5.44207 12.0432 5.44207H10.5817L10.9634 3.55368C10.9734 3.5135 10.9835 3.43314 10.9835 3.36283C10.9835 3.07153 10.7776 2.89575 10.4762 2.89575C10.1297 2.89575 9.96394 3.08158 9.89865 3.39296L9.48682 5.44207H7.31215L7.68883 3.55368C7.69887 3.5135 7.70891 3.43314 7.70891 3.36283C7.70891 3.07153 7.503 2.89575 7.20166 2.89575C6.86014 2.89575 6.68436 3.07656 6.62409 3.39296L6.20724 5.44207H4.7357C4.37409 5.44207 4.14307 5.68816 4.14307 6.03973C4.14307 6.32098 4.32889 6.51182 4.62521 6.51182H5.9963L5.51416 8.89743H4.06773C3.71115 8.89743 3.4751 9.1385 3.4751 9.49006C3.4751 9.77131 3.66595 9.95714 3.95724 9.95714ZM6.61405 8.89743L7.09619 6.51182H9.27086L8.79374 8.89743H6.61405Z" fill="#FF185F"/>
</svg>
