<svg width="16" height="16" viewBox="0 0 16 16" fill="none" xmlns="http://www.w3.org/2000/svg">
<path d="M5.86063 10.1076C7.34222 11.5942 9.14523 12.7393 10.6168 12.7393C11.2747 12.7393 11.8523 12.5083 12.3143 11.996C12.5855 11.6947 12.7513 11.3481 12.7513 11.0016C12.7513 10.7354 12.6458 10.4743 12.3896 10.2935L10.8478 9.19859C10.6017 9.02783 10.4008 8.94747 10.22 8.94747C9.98396 8.94747 9.77302 9.07805 9.54199 9.30908L9.18038 9.67069C9.12012 9.72593 9.0498 9.75105 8.98451 9.75105C8.90416 9.75105 8.82882 9.72091 8.7786 9.69078C8.46219 9.52002 7.91978 9.05797 7.41755 8.55573C6.91532 8.0535 6.44824 7.51611 6.28251 7.19468C6.25237 7.13944 6.22726 7.06913 6.22726 6.98877C6.22726 6.9285 6.24735 6.85819 6.30259 6.79792L6.6642 6.43129C6.89021 6.19524 7.02581 5.98933 7.02581 5.75328C7.02581 5.56745 6.94545 5.36656 6.77469 5.12549L5.68485 3.5987C5.49902 3.33754 5.23786 3.22705 4.95159 3.22705C4.61007 3.22705 4.26855 3.37772 3.97224 3.66399C3.47001 4.13609 3.24902 4.7237 3.24902 5.37158C3.24902 6.84312 4.37905 8.62605 5.86063 10.1076Z" fill="white" fill-opacity="0.9"/>
</svg>
