<svg width="17" height="16" viewBox="0 0 17 16" fill="none" xmlns="http://www.w3.org/2000/svg">
<path d="M7.93373 4.15126C7.99902 4.15126 8.0392 4.11108 8.04925 4.04579C8.19992 3.21711 8.18987 3.20707 9.05873 3.03631C9.12402 3.02626 9.16922 2.98608 9.16922 2.91577C9.16922 2.85048 9.12402 2.8103 9.05873 2.80026C8.19489 2.63452 8.21498 2.61945 8.04925 1.79077C8.0392 1.72548 7.99902 1.6853 7.93373 1.6853C7.86844 1.6853 7.82826 1.72548 7.8132 1.79077C7.65248 2.60941 7.67759 2.62448 6.80371 2.80026C6.73842 2.8103 6.69824 2.85048 6.69824 2.91577C6.69824 2.98608 6.73842 3.02626 6.80873 3.03631C7.67257 3.20707 7.66755 3.21711 7.8132 4.04579C7.82826 4.11108 7.86844 4.15126 7.93373 4.15126ZM5.49791 7.66689C5.59835 7.66689 5.67369 7.59658 5.68876 7.49613C5.86454 6.16521 5.90472 6.16019 7.29088 5.89903C7.3863 5.88396 7.46163 5.81365 7.46163 5.70818C7.46163 5.60774 7.3863 5.5324 7.28585 5.51733C5.90974 5.32649 5.85951 5.28631 5.68876 3.93028C5.67369 3.82481 5.59835 3.7545 5.49791 3.7545C5.39244 3.7545 5.3171 3.82481 5.30706 3.9353C5.14132 5.2612 5.08105 5.2612 3.70494 5.51733C3.60449 5.53742 3.53418 5.60774 3.53418 5.70818C3.53418 5.81867 3.60449 5.88396 3.72503 5.89903C5.08608 6.11499 5.14132 6.15517 5.30706 7.48608C5.3171 7.59658 5.39244 7.66689 5.49791 7.66689ZM8.97838 13.2166C9.12402 13.2166 9.23451 13.1111 9.2546 12.9604C9.61621 10.2383 10.0029 9.81142 12.6949 9.5151C12.8506 9.49501 12.9611 9.3795 12.9611 9.23385C12.9611 9.0882 12.8506 8.97269 12.6949 8.9526C10.013 8.64122 9.63128 8.23943 9.2546 5.50729C9.22949 5.35662 9.12402 5.25115 8.97838 5.25115C8.83273 5.25115 8.72224 5.35662 8.70215 5.50729C8.34054 8.22939 7.95382 8.65629 5.26186 8.9526C5.10114 8.97269 4.99568 9.0882 4.99568 9.23385C4.99568 9.3795 5.10114 9.49501 5.26186 9.5151C7.93373 9.87169 8.30538 10.2283 8.70215 12.9604C8.72726 13.1111 8.83273 13.2166 8.97838 13.2166Z" fill="#0D1126" fill-opacity="0.4"/>
</svg>
