<svg width="14" height="9" viewBox="0 0 14 9" fill="none" xmlns="http://www.w3.org/2000/svg">
<path d="M-0.00634766 7.23825C-0.00634766 8.308 0.556152 8.86548 1.63595 8.86548H11.4044C13.0919 8.86548 14.0059 7.89617 14.0059 6.69081C14.0059 5.96258 13.6694 5.17909 12.9814 4.49606L10.9172 2.44695C9.59131 1.13613 8.73751 0.744385 7.17055 0.744385H1.63595C0.556152 0.744385 -0.00634766 1.30186 -0.00634766 2.37162V7.23825ZM5.49812 4.83758V3.03456C5.49812 2.74829 5.66888 2.57753 5.95515 2.57753H7.20068C8.65716 2.57753 9.27993 2.76336 9.98305 3.46146L11.093 4.56135C11.3943 4.86269 11.2236 5.28959 10.8971 5.28959H5.95515C5.66888 5.28959 5.49812 5.1138 5.49812 4.83758Z" fill="#0D1126" fill-opacity="0.4"/>
</svg>
