<svg width="20" height="20" viewBox="0 0 20 20" fill="none" xmlns="http://www.w3.org/2000/svg">
<path d="M7.03097 16.0561H12.9761C13.8362 16.0561 14.3384 15.5978 14.3761 14.744L14.7716 5.67247H15.638C15.9581 5.67247 16.203 5.42135 16.203 5.10746C16.203 4.79356 15.9519 4.555 15.638 4.555H12.9134V3.61332C12.9134 2.60885 12.2667 2.01245 11.1869 2.01245H8.80134C7.72154 2.01245 7.07492 2.60885 7.07492 3.61332V4.555H4.36286C4.04897 4.555 3.79785 4.79984 3.79785 5.10746C3.79785 5.42763 4.04897 5.67247 4.36286 5.67247H5.23549L5.63728 14.744C5.66867 15.5978 6.1709 16.0561 7.03097 16.0561ZM8.38072 3.66982C8.38072 3.38731 8.57533 3.20525 8.88923 3.20525H11.1053C11.4192 3.20525 11.6138 3.38731 11.6138 3.66982V4.555H8.38072V3.66982ZM7.98521 14.1288C7.7341 14.1288 7.55831 13.9656 7.55204 13.7145L7.3637 7.04733C7.35742 6.79621 7.5332 6.62671 7.79687 6.62671C8.04799 6.62671 8.22377 6.78993 8.23005 7.04105L8.41839 13.7082C8.43094 13.9593 8.25516 14.1288 7.98521 14.1288ZM10.0004 14.1288C9.73675 14.1288 9.56097 13.9656 9.56097 13.7145V7.04105C9.56097 6.79621 9.73675 6.62671 10.0004 6.62671C10.2641 6.62671 10.4461 6.79621 10.4461 7.04105V13.7145C10.4461 13.9656 10.2641 14.1288 10.0004 14.1288ZM12.0156 14.1351C11.7457 14.1351 11.5699 13.9593 11.5824 13.7145L11.7708 7.04105C11.7771 6.78993 11.9528 6.62671 12.204 6.62671C12.4676 6.62671 12.6434 6.79621 12.6371 7.04733L12.4488 13.7145C12.4425 13.9656 12.2667 14.1351 12.0156 14.1351Z" fill="#0A0F29" fill-opacity="0.25"/>
</svg>
