<svg width="20" height="20" viewBox="0 0 20 20" fill="none" xmlns="http://www.w3.org/2000/svg">
<path d="M15.1917 7.03178C15.1969 7.14679 15.1995 7.26233 15.1995 7.37839C15.1995 10.9183 12.5048 15 7.57819 15C6.06532 15 4.65711 14.5565 3.47168 13.7964C3.68151 13.8213 3.89445 13.834 4.11077 13.834C5.36588 13.834 6.52072 13.4057 7.43778 12.6871C6.26531 12.6656 5.27624 11.8911 4.93534 10.8269C5.09907 10.8582 5.26669 10.8751 5.43947 10.8751C5.68348 10.8751 5.92024 10.8422 6.14512 10.781C4.9198 10.5349 3.99625 9.45234 3.99625 8.15448C3.99625 8.14309 3.99625 8.13195 3.99653 8.12081C4.35765 8.32131 4.77058 8.44178 5.20991 8.45576C4.49105 7.9755 4.01827 7.15558 4.01827 6.2261C4.01827 5.7352 4.15012 5.27513 4.38092 4.87954C5.70211 6.50016 7.67554 7.56642 9.90185 7.67833C9.85627 7.48223 9.83241 7.27784 9.83241 7.06776C9.83241 5.58857 11.0318 4.38916 12.511 4.38916C13.282 4.38916 13.9778 4.71453 14.4663 5.23496C15.0767 5.11502 15.6497 4.89199 16.1672 4.58499C15.9673 5.21061 15.5429 5.73544 14.9896 6.06701C15.5315 6.00224 16.0481 5.85823 16.5284 5.64529C16.1693 6.18233 15.715 6.65406 15.1917 7.03178Z" fill="#14151A"/>
</svg>
