<svg width="16" height="16" viewBox="0 0 16 16" fill="none" xmlns="http://www.w3.org/2000/svg">
<path d="M3.82624 11.9357H9.10972C10.1945 11.9357 10.8173 11.328 10.8173 10.2633V5.33137C10.8173 4.26664 10.2347 3.65894 9.1499 3.65894H3.82624C2.7816 3.65894 2.11865 4.26664 2.11865 5.33137V10.2984C2.11865 11.3582 2.74644 11.9357 3.82624 11.9357ZM11.5556 9.41452L13.2732 10.8911C13.4791 11.0719 13.7001 11.1874 13.9111 11.1874C14.3179 11.1874 14.5941 10.8961 14.5941 10.4541V5.16563C14.5941 4.72367 14.3179 4.43237 13.9111 4.43237C13.6951 4.43237 13.4791 4.54789 13.2732 4.72869L11.5556 6.20525V9.41452Z" fill="#14151A"/>
</svg>
