<svg width="16" height="16" viewBox="0 0 16 16" fill="none" xmlns="http://www.w3.org/2000/svg">
<path fill-rule="evenodd" clip-rule="evenodd" d="M10.9105 10.0605C10.79 10.4016 10.311 10.6838 9.929 10.7664C9.6675 10.8219 9.3265 10.8658 8.1775 10.3896C6.887 9.85499 5.095 7.95049 5.095 6.68311C5.095 6.03791 5.467 5.28662 6.1175 5.28662C6.4305 5.28662 6.4995 5.29272 6.6025 5.53979C6.723 5.83088 7.017 6.54806 7.052 6.62158C7.1965 6.92317 6.905 7.09972 6.6935 7.3623C6.626 7.44132 6.5495 7.52679 6.635 7.67383C6.72 7.81787 7.014 8.29703 7.446 8.68164C8.004 9.17879 8.4565 9.33751 8.6185 9.40503C8.739 9.45504 8.883 9.4434 8.971 9.34937C9.0825 9.22883 9.221 9.02885 9.362 8.83179C9.4615 8.69074 9.588 8.67313 9.7205 8.72314C9.81 8.75415 10.9475 9.28242 10.9955 9.36694C11.031 9.42846 11.031 9.71944 10.9105 10.0605ZM8.001 3H7.9985C5.242 3 3 5.24268 3 8C3 9.09333 3.3525 10.1077 3.952 10.9304L3.329 12.7883L5.2505 12.1743C6.041 12.6975 6.9845 13 8.001 13C10.7575 13 13 10.7573 13 8C13 5.24268 10.7575 3 8.001 3Z" fill="white" fill-opacity="0.9"/>
</svg>
